<svg xmlns="http://www.w3.org/2000/svg" width="2400" height="1000" viewBox="0 0 2400 1000">
  <rect x="0" y="0" width="2400" height="1000" fill="#0B0C09"/>
  <rect x="70" y="70" width="2260" height="860" fill="none" stroke="#C9962E" stroke-width="8"/>
  <g transform="translate(410 390)">
    <g stroke="#C9962E" stroke-width="6" stroke-linecap="round"><line x1="0" y1="-110" x2="0" y2="-225"/><line x1="-70" y1="-80" x2="-160" y2="-190"/><line x1="70" y1="-80" x2="160" y2="-190"/><line x1="-100" y1="0" x2="-225" y2="-20"/><line x1="100" y1="0" x2="225" y2="-20"/></g>
    <circle r="85" fill="#B86432"/><path d="M -63 0 A 63 63 0 0 1 63 0 L 0 0 Z" fill="#E0B861"/>
    <polygon points="-210,220 0,-60 210,220" fill="#263F38"/><polygon points="-390,220 -180,20 0,220" fill="#4F7870"/><polygon points="0,220 180,35 390,220" fill="#4F7870"/>
  </g>
  <line x1="830" y1="175" x2="830" y2="825" stroke="#C9962E" stroke-width="5"/>
  <text x="1560" y="405" text-anchor="middle" font-family="Cinzel, Cormorant Garamond, Times New Roman, serif" font-size="190" font-weight="700" letter-spacing="8" fill="#E0B861">ALPINE GROOVE</text>
  <text x="1560" y="590" text-anchor="middle" font-family="Cinzel, Cormorant Garamond, Times New Roman, serif" font-size="156" font-weight="700" letter-spacing="20" fill="#F4E7B8">GUIDE</text>
  <text x="1560" y="710" text-anchor="middle" font-family="Lato, Inter, Arial, sans-serif" font-size="66" font-weight="800" letter-spacing="8" fill="#F4E7B8">THE SOUND OF THE FRONT RANGE</text>
</svg>