<svg width="294" height="85" viewBox="0 0 294 85" fill="none" xmlns="http://www.w3.org/2000/svg">
<g clip-path="url(#clip0_9_12240)">
<g clip-path="url(#clip1_9_12240)">
<g clip-path="url(#clip2_9_12240)">
<path d="M34.367 4.66043C33.0404 3.32248 31.368 2.33038 29.344 1.69543C27.32 1.06048 24.8086 0.742981 21.8095 0.742981H9.83036L-0.00585938 37.7917H10.1932L13.0221 27.1561H19.0373C21.7585 27.1561 24.236 26.8103 26.464 26.1243C28.6977 25.4327 30.6082 24.4462 32.1957 23.1593C33.783 21.8724 35.0189 20.302 35.909 18.4482C36.7991 16.5943 37.2413 14.5251 37.2413 12.229C37.2413 9.12224 36.2832 6.59931 34.367 4.66043ZM24.7632 17.6034C23.3856 18.6409 21.4411 19.1625 18.9295 19.1625H15.1141L17.6766 9.37163H21.4411C23.397 9.37163 24.8426 9.84788 25.7837 10.8003C26.481 11.509 26.8325 12.3707 26.8325 13.3911C26.8325 15.16 26.1408 16.5603 24.7632 17.6034Z" fill="white"/>
<path d="M68.0586 0.742981L64.3962 14.61H51.4703L55.1893 0.742981H44.9846L35.1484 37.7917H45.3531L49.0665 23.7148H61.9867L59.7814 31.958C60.0819 31.9807 60.3881 32.0317 60.7056 32.094C61.8847 32.3378 63.3985 33.1712 64.1184 34.4978C64.4755 35.1611 64.6116 35.8925 64.5096 36.6238C64.4642 36.9753 64.3736 37.3551 64.2375 37.7917H68.4214L68.5688 37.2417L78.2576 0.742981H68.0586Z" fill="white"/>
<path d="M84.8523 0.742981L76.9551 30.484C77.2272 30.4103 77.4823 30.3819 77.7374 30.3819C77.9869 30.3819 78.2363 30.4046 78.4801 30.4443L78.5369 30.4556L78.5935 30.4669C81.1164 31.0622 83.0325 32.5873 84.1324 34.8719L84.1721 34.9456L84.2004 35.025C84.3648 35.4389 84.4441 35.8754 84.4441 36.3289C84.4441 36.8619 84.3364 37.2871 84.0983 37.7916H85.1641L95.0004 0.742981H84.8523Z" fill="white"/>
<path d="M104.364 28.7946L111.797 0.742981H101.592L91.7559 37.7917H119.433L121.837 28.7945L104.364 28.7946Z" fill="white"/>
<path d="M151.138 28.7946L158.57 0.743042H148.365L138.529 37.7917H166.207L168.61 28.7946H151.138Z" fill="white"/>
<path d="M209.922 10.0859C209.089 8.05627 207.904 6.29883 206.367 4.81914C204.831 3.33945 202.994 2.17159 200.846 1.32684C198.703 0.476431 196.322 0.0569458 193.708 0.0569458C190.533 0.0569458 187.613 0.663538 184.943 1.88244C182.273 3.10135 179.971 4.71143 178.038 6.72404C176.099 8.73664 174.591 11.0554 173.514 13.6859C172.431 16.3108 171.893 19.0377 171.893 21.861C171.893 24.2251 172.306 26.4248 173.145 28.4487C173.877 30.2176 174.869 31.7766 176.128 33.1259C176.315 33.3243 176.507 33.5227 176.706 33.7155C177.579 34.5659 178.56 35.3085 179.637 35.9435C180.442 36.4254 181.304 36.8449 182.222 37.2077C183.656 37.7803 185.204 38.1545 186.854 38.3359C187.336 37.6046 187.806 36.8789 188.277 36.1702C188.407 35.9718 188.526 35.7904 188.628 35.643L188.81 35.3652L189.042 35.0137C189.172 34.8097 189.292 34.6169 189.405 34.4355C189.995 33.4604 190.885 31.9921 192.829 31.9921C193.379 31.9921 193.94 32.1225 194.541 32.3889C196.027 33.0522 197.297 35.1555 197.427 36.9527C197.665 36.8562 197.898 36.7599 198.13 36.6522C200.794 35.4389 203.096 33.8232 205.035 31.8106C206.968 29.798 208.476 27.4793 209.559 24.8544C210.636 22.2238 211.181 19.4969 211.181 16.6736C211.181 14.3095 210.761 12.1155 209.922 10.0859ZM200.012 21.6229C199.513 23.0175 198.81 24.2874 197.909 25.4327C197.007 26.5835 195.902 27.5076 194.604 28.2106C193.305 28.9193 191.854 29.2708 190.261 29.2708C188.98 29.2708 187.84 29.0667 186.854 28.6642C185.862 28.256 185.034 27.6834 184.354 26.9407C183.679 26.2037 183.169 25.3307 182.823 24.3215C182.471 23.318 182.301 22.2296 182.301 21.0674C182.301 19.6898 182.551 18.3064 183.055 16.9118C183.56 15.5172 184.269 14.2472 185.187 13.102C186.106 11.9568 187.211 11.0327 188.492 10.3241C189.774 9.61546 191.214 9.26393 192.807 9.26393C194.094 9.26393 195.227 9.468 196.219 9.87625C197.206 10.2788 198.039 10.8513 198.714 11.594C199.389 12.3367 199.905 13.2098 200.25 14.2132C200.596 15.2224 200.772 16.3052 200.772 17.4674C200.772 18.845 200.517 20.2283 200.012 21.6229Z" fill="white"/>
<path d="M245.345 0.742981L239.851 21.3337L230.384 0.742981H220.91L211.074 37.7917H221.171L221.364 37.0716L226.823 16.4638L236.331 36.9696C239.245 33.0862 241.62 31.0169 244.273 31.0169C245.266 31.0169 246.263 31.3457 247.153 31.9693L255.442 0.742981H245.345Z" fill="white"/>
<path d="M273.072 23.6639H280.136L278.667 28.6812C278.044 28.9646 277.324 29.2084 276.524 29.4012C275.719 29.5996 274.812 29.696 273.803 29.696C272.686 29.696 271.632 29.5259 270.64 29.1914C269.642 28.8569 268.769 28.358 268.021 27.706C267.272 27.0484 266.677 26.2263 266.24 25.2399C265.804 24.2478 265.588 23.0969 265.588 21.7873C265.588 20.0922 265.895 18.4708 266.507 16.9344C267.113 15.3924 267.969 14.0488 269.069 12.8979C270.169 11.7527 271.473 10.84 272.993 10.1654C274.512 9.49638 276.19 9.16187 278.044 9.16187C280.028 9.16187 281.763 9.51902 283.248 10.2447C284.728 10.9704 286.009 11.8774 287.092 12.9716L293.895 6.29885C293.266 5.48814 292.461 4.70578 291.486 3.94611C290.511 3.18644 289.382 2.51747 288.112 1.93351C286.837 1.35522 285.408 0.884697 283.821 0.533168C282.233 0.181691 280.533 0.000305176 278.718 0.000305176C275.232 0.000305176 272.051 0.601226 269.171 1.80312C266.291 3.00501 263.808 4.62638 261.722 6.67302C259.636 8.7196 258.026 11.0724 256.886 13.737C255.747 16.4015 255.18 19.2134 255.18 22.1785C255.18 25.0358 255.684 27.4906 256.705 29.5372C257.719 31.5838 259.057 33.2789 260.724 34.6169C262.391 35.9605 264.279 36.947 266.394 37.5819C268.508 38.2169 270.662 38.5343 272.862 38.5343C275.583 38.5343 278.095 38.1829 280.397 37.4742C282.698 36.7712 284.756 35.8868 286.57 34.8266L291.797 16.1464H275.005L273.072 23.6639Z" fill="white"/>
<path d="M86.0884 78.1456H84.7448L81.9102 84.8863H83.3955L84.0021 83.384H86.7971L87.4037 84.8863H88.9231L86.0884 78.1456ZM84.5181 82.08L85.3968 79.9144L86.2756 82.08H84.5181Z" fill="white"/>
<path d="M88.6153 78.1909V79.5515H90.6278V84.8863H92.0848V79.5515H94.0974V78.1909H88.6153Z" fill="white"/>
<path d="M102.433 81.3827C102.904 81.1163 103.301 80.6967 103.301 79.9427V79.92C103.301 79.4608 103.153 79.0923 102.847 78.7862C102.473 78.4007 101.878 78.1909 101.118 78.1909H98.0508V84.8863H101.197C102.688 84.8863 103.669 84.274 103.669 83.0495V83.0325C103.669 82.1311 103.198 81.6832 102.433 81.3827ZM99.468 79.4835H100.902C101.515 79.4835 101.855 79.7329 101.855 80.1695V80.1922C101.855 80.6854 101.452 80.8952 100.806 80.8952H99.468V79.4835ZM102.223 82.868C102.223 83.3669 101.838 83.5937 101.197 83.5937H99.4681V82.1197H101.146C101.895 82.1197 102.223 82.3975 102.223 82.8453V82.868Z" fill="white"/>
<path d="M108.102 78.0775C106.062 78.0775 104.576 79.6366 104.576 81.5358V81.5585C104.576 83.4576 106.039 84.9997 108.085 84.9997C110.126 84.9997 111.606 83.4407 111.606 81.5358V81.5188C111.606 79.6139 110.143 78.0775 108.102 78.0775ZM110.087 81.5584C110.087 82.7036 109.276 83.639 108.102 83.639C106.929 83.639 106.096 82.6866 106.096 81.5357V81.5187C106.096 80.3735 106.912 79.4324 108.085 79.4324C109.253 79.4324 110.087 80.3906 110.087 81.5357V81.5584Z" fill="white"/>
<path d="M117.106 78.1909V82.0233C117.106 83.0892 116.567 83.6334 115.677 83.6334C114.792 83.6334 114.254 83.0664 114.254 81.978V78.1909H112.797V82.0177C112.797 83.9849 113.885 84.9883 115.66 84.9883C117.434 84.9883 118.563 83.9962 118.563 81.9666V78.1909H117.106Z" fill="white"/>
<path d="M124.146 82.4939C124.985 82.1764 125.563 81.5018 125.563 80.4189V80.4019C125.563 79.767 125.364 79.2454 124.996 78.8712C124.559 78.429 123.907 78.1909 123.068 78.1909H120.041V84.8863H121.498V82.7433H122.643L124.061 84.8863H125.761L124.146 82.4939ZM124.089 80.4983C124.089 81.0596 123.681 81.4451 122.972 81.4451H121.498V79.5231H122.944C123.652 79.5231 124.089 79.8463 124.089 80.4756V80.4983Z" fill="white"/>
<path d="M131.261 81.3827C131.732 81.1163 132.128 80.6967 132.128 79.9427V79.92C132.128 79.4608 131.975 79.0923 131.675 78.7862C131.295 78.4007 130.7 78.1909 129.946 78.1909H126.873V84.8863H130.019C131.516 84.8863 132.497 84.274 132.497 83.0495V83.0325C132.497 82.1311 132.026 81.6832 131.261 81.3827ZM128.29 79.4835H129.725C130.343 79.4835 130.683 79.7329 130.683 80.1695V80.1922C130.683 80.6854 130.274 80.8952 129.634 80.8952H128.29V79.4835ZM131.051 82.868C131.051 83.3669 130.666 83.5937 130.019 83.5937H128.29V82.1197H129.974C130.722 82.1197 131.051 82.3975 131.051 82.8453V82.868Z" fill="white"/>
<path d="M136.925 78.0775C134.884 78.0775 133.404 79.6366 133.404 81.5358V81.5585C133.404 83.4576 134.867 84.9997 136.908 84.9997C138.949 84.9997 140.434 83.4407 140.434 81.5358V81.5188C140.434 79.6139 138.966 78.0775 136.925 78.0775ZM138.909 81.5584C138.909 82.7036 138.098 83.639 136.925 83.639C135.757 83.639 134.924 82.6866 134.924 81.5357V81.5187C134.924 80.3735 135.734 79.4324 136.908 79.4324C138.081 79.4324 138.909 80.3906 138.909 81.5357V81.5584Z" fill="white"/>
<path d="M146.166 78.1909V82.3124L143.07 78.1909H141.727V84.8863H143.161V80.6287L146.364 84.8863H147.606V78.1909H146.166Z" fill="white"/>
<path d="M156.41 81.3827C156.88 81.1163 157.277 80.6967 157.277 79.9427V79.92C157.277 79.4608 157.13 79.0923 156.823 78.7862C156.449 78.4007 155.848 78.1909 155.094 78.1909H152.021V84.8863H155.168C156.665 84.8863 157.646 84.274 157.646 83.0495V83.0325C157.646 82.1311 157.175 81.6832 156.41 81.3827ZM153.439 79.4835H154.879C155.491 79.4835 155.831 79.7329 155.831 80.1695V80.1922C155.831 80.6854 155.423 80.8952 154.783 80.8952H153.439V79.4835ZM156.2 82.868C156.2 83.3669 155.814 83.5937 155.168 83.5937H153.439V82.1197H155.123C155.871 82.1197 156.2 82.3975 156.2 82.8453V82.868Z" fill="white"/>
<path d="M162.947 82.4939C163.786 82.1764 164.364 81.5018 164.364 80.4189V80.4019C164.364 79.767 164.165 79.2454 163.797 78.8712C163.36 78.429 162.708 78.1909 161.869 78.1909H158.848V84.8863H160.299V82.7433H161.444L162.862 84.8863H164.562L162.947 82.4939ZM162.89 80.4983C162.89 81.0596 162.482 81.4451 161.773 81.4451H160.299V79.5231H161.745C162.453 79.5231 162.89 79.8463 162.89 80.4756V80.4983Z" fill="white"/>
<path d="M168.909 78.0775C166.863 78.0775 165.383 79.6366 165.383 81.5358V81.5585C165.383 83.4576 166.846 84.9997 168.886 84.9997C170.927 84.9997 172.413 83.4407 172.413 81.5358V81.5188C172.413 79.6139 170.95 78.0775 168.909 78.0775ZM170.893 81.5584C170.893 82.7036 170.077 83.639 168.909 83.639C167.736 83.639 166.902 82.6866 166.902 81.5357V81.5187C166.902 80.3735 167.719 79.4324 168.886 79.4324C170.06 79.4324 170.893 80.3906 170.893 81.5357V81.5584Z" fill="white"/>
<path d="M172.951 78.1909V79.5515H174.964V84.8863H176.415V79.5515H178.428V78.1909H172.951Z" fill="white"/>
<path d="M183.683 78.1909V80.8385H181.002V78.1909H179.545V84.8863H181.002V82.1991H183.683V84.8863H185.141V78.1909H183.683Z" fill="white"/>
<path d="M188.168 83.5767V82.1707H191.292V80.8611H188.168V79.5005H191.717V78.1909H186.723V84.8863H191.763V83.5767H188.168Z" fill="white"/>
<path d="M197.154 82.4939C197.998 82.1764 198.571 81.5018 198.571 80.4189V80.4019C198.571 79.767 198.372 79.2454 198.004 78.8712C197.573 78.429 196.921 78.1909 196.076 78.1909H193.055V84.8863H194.512V82.7433H195.651L197.068 84.8863H198.769L197.154 82.4939ZM197.097 80.4983C197.097 81.0596 196.694 81.4451 195.986 81.4451H194.512V79.5231H195.957C196.666 79.5231 197.097 79.8463 197.097 80.4756L197.097 80.4983Z" fill="white"/>
<path d="M202.569 80.8781C201.429 80.5833 201.14 80.4416 201.14 79.9994V79.9824C201.14 79.6536 201.435 79.3985 201.996 79.3985C202.552 79.3985 203.13 79.6479 203.714 80.0561L204.468 78.9506C203.799 78.4006 202.977 78.0945 202.013 78.0945C200.658 78.0945 199.694 78.8996 199.694 80.1128V80.1355C199.694 81.4621 200.556 81.8363 201.888 82.1764C202.994 82.4656 203.221 82.6583 203.221 83.0325V83.0495C203.221 83.4407 202.864 83.6788 202.268 83.6788C201.514 83.6788 200.891 83.367 200.29 82.8681L199.434 83.9112C200.227 84.6256 201.236 84.977 202.24 84.977C203.668 84.977 204.666 84.2344 204.666 82.9078V82.8851C204.666 81.7172 203.912 81.2296 202.569 80.8781Z" fill="white"/>
<path d="M61.5758 38.3963C60.9254 40.0269 59.8999 43.392 58.5439 50.9913C67.3366 41.9719 75.4399 32.6616 77.7386 32.6616C77.8535 32.6616 77.964 32.6717 78.0708 32.6911C80.0182 33.1492 81.3034 34.255 82.0773 35.8612C82.1348 36.0073 82.1636 36.1615 82.1636 36.3279C82.1636 37.2007 81.0718 37.7244 73.0835 52.7952C69.6352 59.1963 66.2448 66.9932 65.7276 67.7503C65.3482 68.4103 64.9144 68.9802 64.4178 69.4464C63.8723 69.9063 63.3282 70.128 62.7249 70.128C62.1501 70.128 61.8054 69.7793 61.2306 69.0805C60.7133 68.3241 60.6365 68.0841 60.6365 67.7936C60.6365 65.7568 67.0348 53.6606 69.9658 46.6779C56.3459 59.7123 53.8172 65.4146 52.3229 65.4146C52.1975 65.4146 51.9621 65.3866 51.8422 65.326C51.1831 65.0287 50.7649 64.6292 50.5264 63.8402C50.492 63.7209 50.484 63.6037 50.484 63.4946C50.484 62.2724 52.3804 54.9407 53.9323 46.9105C51.8561 49.3181 48.922 53.4849 46.061 57.8088C44.2796 60.5303 42.5591 63.2579 41.131 65.5969L38.1707 70.6744C38.047 70.8549 37.9457 70.9425 37.8411 70.9425C36.6915 70.9425 34.5078 69.4298 34.5078 67.2766C34.5078 66.2729 35.1686 64.804 38.3142 60.0731C39.934 57.5878 42.3713 54.0417 46.016 48.8384C52.7397 39.1209 56.2757 34.7115 57.5098 34.4075C58.4808 34.1573 59.2806 34.1333 60.2522 34.3312C60.8232 34.4475 61.7402 34.9015 62.1111 35.5861C62.2314 35.8082 62.2866 36.0599 62.2522 36.3108C62.1812 36.8283 61.9387 37.5432 61.5758 38.3963ZM99.5164 55.1227C101.183 53.4936 106.47 46.1619 107.792 44.4742C109.229 42.6704 109.171 42.4378 109.573 42.4378C109.66 42.4378 109.744 42.4393 109.828 42.4423C111.235 42.7469 112.168 43.757 112.881 45.0918C113.03 45.4501 113.136 45.8282 113.136 46.2198C113.136 47.3838 112.389 48.373 112.102 50.4676C111.038 57.6117 109.536 62.9362 107.274 65.9696C105.733 68.5974 103.799 70.0115 101.341 70.0115C98.7624 70.0115 96.5341 67.5377 95.6544 64.7747C92.6439 68.1499 90.0912 69.9533 87.7799 69.9533C85.4811 69.9533 83.7571 68.2077 83.3549 65.5311C82.7226 66.4621 80.0791 70.0115 77.608 70.0115C74.5622 70.0115 72.0334 66.4039 72.0334 63.3782C72.0334 60.8759 73.8153 57.0357 75.9991 53.7771C76.0815 53.6542 76.1598 53.5416 76.2406 53.4228C76.4113 53.1527 76.5839 52.8844 76.7605 52.6209C79.8061 48.0818 81.7027 46.3945 83.2544 46.3945C84.6176 46.3945 85.2624 47.2314 85.4725 47.7829C85.5481 47.9814 85.5036 48.206 85.3764 48.3753L83.2519 51.2007C83.2438 51.2114 83.2358 51.2213 83.2269 51.2314C82.4195 52.155 81.4956 53.3753 80.5965 54.6989C78.7983 57.5175 77.2777 60.5546 77.2777 62.1637C77.2777 62.6875 77.5649 63.502 78.1971 63.502C80.611 63.502 83.9438 58.9051 85.6106 56.4032C85.7097 56.255 85.7989 56.1192 85.8942 55.9755L91.3443 47.4934C91.3909 47.4209 91.4437 47.3528 91.5075 47.2954C92.2127 46.6607 93.3288 46.5134 93.9757 46.6443C95.0182 46.8553 95.8679 47.8723 95.9834 48.598C96.0118 48.7768 95.9683 48.957 95.862 49.1027L92.4923 53.7188C92.2662 54.0459 92.0298 54.3912 91.7897 54.7473C90.1192 57.3461 88.4837 60.3843 88.4837 62.8039C88.4837 63.7349 89.0011 63.9093 89.5183 63.9093C91.328 63.9093 93.833 61.7904 95.6152 59.8398L99.5164 55.1227ZM104.02 62.6938C105.931 59.1706 106.728 52.7588 107.26 50.8093C104.977 53.8912 102.473 57.0612 100.652 59.4441C100.422 60.2061 100.321 61.0681 100.321 61.6982C100.321 63.4438 100.953 63.9092 101.873 63.9092C102.697 63.9092 103.405 63.4472 104.02 62.6938ZM144.523 48.5257C144.792 47.3508 144.583 46.1151 143.854 45.1609C143.499 44.6961 143.051 44.3142 142.488 44.0358C141.459 43.4833 140.063 43.2081 139.285 43.2608C136.778 43.4306 131.32 47.2633 127.957 52.7024C126.432 54.8751 125.272 57.2522 124.907 59.5921C124.677 59.8547 124.436 60.1267 124.17 60.418C121.756 63.0947 119.917 64.0257 118.595 64.0257C118.078 64.0257 117.446 63.7349 117.446 62.1636C117.446 60.5153 118.241 58.5695 119.309 56.6861C119.694 56.0075 120.123 55.3548 120.575 54.72L124.412 49.3334C124.565 49.1082 124.635 48.8297 124.577 48.5633C124.359 47.5685 123.48 46.3506 122.388 46.3944C120.905 46.4539 119.974 48.2485 117.331 52.0388C115.824 54.1834 114.386 56.6252 113.362 59.3968C113.08 60.1969 112.316 62.723 112.374 64.7747C112.451 67.4502 113.926 70.0114 116.857 70.0114C119.632 70.0114 122.455 67.4009 125.239 64.208C126.155 67.2529 128.556 70.0114 133.234 70.0114C137.774 70.0114 141.739 67.0444 144.613 63.6107C145.691 62.3243 146.767 60.9611 147.361 59.9378C148.088 58.9278 148.593 58.0556 148.593 57.5668C148.593 56.694 148.248 55.8212 147.444 55.8212C146.811 55.8212 146.409 56.461 143.881 59.4288C142.846 60.6506 138.823 64.8988 134.168 64.8988C131.179 64.8988 129.858 63.2694 129.858 61C129.858 59.2965 130.55 57.2738 131.755 55.2734C133.094 52.7463 135.757 48.4654 138.849 47.8663C139.343 47.7705 140.526 48.3088 139.589 49.5449C139.414 49.776 139.042 50.2982 138.679 50.7977C137.804 52.0788 136.797 52.9954 136.797 54.4751C136.797 55.2314 137.314 56.2207 138.751 56.2207C139.556 56.2207 140.13 55.4062 140.59 54.8242C141.984 53.0428 143.05 51.767 143.704 50.6363C144.072 49.9452 144.359 49.2436 144.523 48.5257ZM179.451 66.5862C189.911 45.0561 194.941 38.6387 195.14 37.4332C195.29 36.5281 194.382 34.8156 193.613 34.4731C192.14 33.8175 191.865 34.8731 190.945 36.2696C190.805 36.4828 190.672 36.6872 190.533 36.8989C190.425 37.0596 190.311 37.2325 190.184 37.4258C187.697 41.2035 185.407 44.7431 183.293 48.2611C180.719 48.439 174.144 48.8985 171.578 49.1292C173.826 45.4294 177.611 39.417 177.842 38.8297C178.006 38.4481 178.076 38.1945 178.028 37.9627C177.909 37.3833 177.622 36.9891 177.153 36.3856C176.578 35.6293 175.888 35.3385 175.429 35.3385C174.666 35.3385 173.077 37.7442 172.082 39.2834C171.743 39.7847 171.424 40.2768 171.161 40.6843C167.828 45.805 155.3 65.0075 155.3 66.8113C155.3 69.3133 157.312 71.1171 158.403 71.1171C158.601 71.1171 158.77 70.9757 158.923 70.7548L160.602 67.6336C162.595 64.1812 164.925 60.1955 167.326 56.2074C172.349 55.2297 176.406 54.9402 179.38 54.8823C178.115 57.0934 176.851 59.3048 175.702 61.5742C174.782 63.3198 173.23 66.0549 173.23 66.986C173.23 68.5568 175.472 70.186 176.851 70.186C177.115 70.186 177.367 70.0443 177.598 69.821C177.988 69.395 178.768 67.7925 179.451 66.5862ZM205.642 57.6173C205.532 57.7674 205.424 57.9224 205.315 58.0763C204.466 59.4659 203.818 60.9592 203.818 62.4545C203.818 63.2694 204.163 64.0839 205.082 64.0839C207.083 64.0839 209.881 61.3177 212.174 58.5382C213.465 53.4313 216.805 47.8818 219.835 43.3028C219.878 43.2381 219.92 43.1769 219.963 43.1128C220.175 42.787 220.387 42.4635 220.596 42.1466C224.102 36.9094 226.918 33.3018 229.389 33.3018C230.998 33.3018 232.952 35.1638 232.952 38.4807C232.952 40.9886 231.169 44.7032 228.514 48.6231C225.374 53.5354 220.684 58.9364 216.294 62.784C216.599 64.4979 217.444 64.8987 218.24 64.8987C219.734 64.8987 222.32 64.0256 225.998 59.836C226.39 59.3948 226.728 58.9988 227.032 58.6365C228.304 53.5027 231.669 47.911 234.718 43.3027C234.761 43.2376 234.804 43.1759 234.847 43.1113C235.059 42.786 235.27 42.463 235.479 42.1465C238.986 36.9093 241.801 33.3017 244.272 33.3017C245.881 33.3017 247.835 35.1637 247.835 38.4806C247.835 40.9885 246.052 44.7031 243.397 48.623C240.257 53.5353 235.567 58.9363 231.177 62.7839C231.482 64.4978 232.327 64.8986 233.124 64.8986C234.617 64.8986 237.204 64.0255 240.882 59.8359C243.411 56.9846 243.927 55.821 244.847 55.821C245.536 55.821 245.939 56.5773 245.939 57.683C245.939 57.9672 245.465 58.8455 244.655 59.9908C242.898 62.9242 236.998 70.0112 231.5 70.0112C229.194 70.0112 227.107 67.4866 226.612 64.0994C223.945 67.0061 220.197 70.0112 216.617 70.0112C214.376 70.0112 212.342 67.6284 211.774 64.3865L211.505 64.3074C209.897 66.2269 206.62 70.0112 203.114 70.0112C200.7 70.0112 199.033 67.5093 199.033 64.8909C199.033 64.5998 199.09 64.1925 199.148 63.9017C197.597 65.9385 194.149 70.0113 190.758 70.0113C188.804 70.0113 185.873 66.229 185.873 63.727C185.873 61.6092 187.048 58.9935 188.848 56.4133C192.5 50.5288 199.845 44.4157 204.449 44.4157C207.093 44.4157 208.53 47.0345 208.53 50.4092C208.53 50.4545 208.53 50.5008 208.53 50.548C208.528 51.1118 208.451 51.6773 208.274 52.2119C207.664 54.0521 206.751 55.849 205.642 57.6173ZM237.935 45.4526C235.306 49.5092 232.606 54.406 231.515 58.0906C234.116 55.6706 236.706 52.4285 238.864 49.2317C241.588 45.0063 243.453 41.047 243.453 39.404C243.453 39.1133 243.396 38.9968 243.281 38.9968C242.692 38.9968 240.421 41.7489 237.935 45.4526ZM223.052 45.4526C220.423 49.5092 217.723 54.406 216.632 58.0906C219.232 55.6706 221.823 52.4284 223.981 49.2316C226.705 45.0062 228.57 41.047 228.57 39.404C228.57 39.1133 228.513 38.9968 228.398 38.9968C227.809 38.9968 225.538 41.7489 223.052 45.4526ZM192.351 58.5943C191.557 59.9107 191.06 61.1763 191.06 62.2219C191.06 63.0365 191.462 63.6767 192.381 63.6767C194.653 63.6767 200.538 56.7781 203.17 53.0117C203.112 51.7374 202.824 51.0422 201.849 51.0422C199.679 51.0422 195.044 54.8277 192.351 58.5943ZM123.534 41.6825C123.534 39.3511 125.399 37.6771 127.264 37.6771C128.415 37.6771 129.402 38.4545 129.402 40.2478C129.402 42.5193 127.483 44.4921 125.618 44.4921C124.357 44.4921 123.534 43.2966 123.534 41.6825Z" fill="#EF4123"/>
</g>
</g>
</g>
<defs>
<clipPath id="clip0_9_12240">
<rect width="293.89" height="85" fill="white"/>
</clipPath>
<clipPath id="clip1_9_12240">
<rect width="293.89" height="85" fill="white"/>
</clipPath>
<clipPath id="clip2_9_12240">
<rect width="293.901" height="85" fill="white" transform="translate(-0.00585938)"/>
</clipPath>
</defs>
</svg>
